<svg width="24" height="24" viewBox="0 0 24 24" fill="none" xmlns="http://www.w3.org/2000/svg">
<path fill-rule="evenodd" clip-rule="evenodd" d="M17.9502 1.29981C17.9666 1.29981 17.9832 1.29981 18.0001 1.29981C18.0169 1.29981 18.0335 1.29981 18.0499 1.29981C18.4666 1.29977 18.7353 1.29974 18.9703 1.32622C20.9175 1.54562 22.4542 3.08236 22.6736 5.02956C22.7001 5.26455 22.7001 5.5333 22.7001 5.94996C22.7001 5.96634 22.7001 5.98296 22.7001 5.99981C22.7001 6.01666 22.7001 6.03328 22.7001 6.04967C22.7001 6.46632 22.7001 6.73507 22.6736 6.97006C22.4542 8.91726 20.9175 10.454 18.9703 10.6734C18.7353 10.6999 18.4666 10.6999 18.0499 10.6998C18.0335 10.6998 18.0169 10.6998 18.0001 10.6998C17.9832 10.6998 17.9666 10.6998 17.9502 10.6998C17.5335 10.6999 17.2648 10.6999 17.0298 10.6734C15.0826 10.454 13.5459 8.91726 13.3265 6.97006C13.3 6.73507 13.3 6.46631 13.3001 6.04964C13.3001 6.03326 13.3001 6.01665 13.3001 5.99981C13.3001 5.98297 13.3001 5.96636 13.3001 5.94998C13.3 5.53331 13.3 5.26455 13.3265 5.02956C13.5459 3.08236 15.0826 1.54562 17.0298 1.32622C17.2648 1.29974 17.5336 1.29977 17.9502 1.29981ZM18.0001 2.69981C17.5166 2.69981 17.333 2.70092 17.1866 2.71742C15.8884 2.86368 14.8639 3.88817 14.7177 5.18631C14.7012 5.33272 14.7001 5.51639 14.7001 5.99981C14.7001 6.48323 14.7012 6.6669 14.7177 6.81331C14.8639 8.11145 15.8884 9.13594 17.1866 9.28221C17.333 9.2987 17.5166 9.29981 18.0001 9.29981C18.4835 9.29981 18.6671 9.2987 18.8136 9.28221C20.1117 9.13594 21.1362 8.11145 21.2824 6.81331C21.2989 6.6669 21.3001 6.48323 21.3001 5.99981C21.3001 5.51639 21.2989 5.33272 21.2824 5.18631C21.1362 3.88817 20.1117 2.86368 18.8136 2.71742C18.6671 2.70092 18.4835 2.69981 18.0001 2.69981Z" fill="#222628"/>
<path fill-rule="evenodd" clip-rule="evenodd" d="M17.9502 12.2998C17.9666 12.2998 17.9832 12.2998 18.0001 12.2998C18.0169 12.2998 18.0335 12.2998 18.0499 12.2998C18.4666 12.2998 18.7353 12.2997 18.9703 12.3262C20.9175 12.5456 22.4542 14.0824 22.6736 16.0296C22.7001 16.2645 22.7001 16.5333 22.7001 16.95C22.7001 16.9663 22.7001 16.983 22.7001 16.9998C22.7001 17.0167 22.7001 17.0333 22.7001 17.0497C22.7001 17.4663 22.7001 17.7351 22.6736 17.9701C22.4542 19.9173 20.9175 21.454 18.9703 21.6734C18.7353 21.6999 18.4666 21.6999 18.0499 21.6998C18.0335 21.6998 18.0169 21.6998 18.0001 21.6998C17.9832 21.6998 17.9666 21.6998 17.9502 21.6998C17.5335 21.6999 17.2648 21.6999 17.0298 21.6734C15.0826 21.454 13.5459 19.9173 13.3265 17.9701C13.3 17.7351 13.3 17.4663 13.3001 17.0496C13.3001 17.0333 13.3001 17.0167 13.3001 16.9998C13.3001 16.983 13.3001 16.9664 13.3001 16.95C13.3 16.5333 13.3 16.2646 13.3265 16.0296C13.5459 14.0824 15.0826 12.5456 17.0298 12.3262C17.2648 12.2997 17.5336 12.2998 17.9502 12.2998ZM18.0001 13.6998C17.5166 13.6998 17.333 13.7009 17.1866 13.7174C15.8884 13.8637 14.8639 14.8882 14.7177 16.1863C14.7012 16.3327 14.7001 16.5164 14.7001 16.9998C14.7001 17.4832 14.7012 17.6669 14.7177 17.8133C14.8639 19.1114 15.8884 20.1359 17.1866 20.2822C17.333 20.2987 17.5166 20.2998 18.0001 20.2998C18.4835 20.2998 18.6671 20.2987 18.8136 20.2822C20.1117 20.1359 21.1362 19.1114 21.2824 17.8133C21.2989 17.6669 21.3001 17.4832 21.3001 16.9998C21.3001 16.5164 21.2989 16.3327 21.2824 16.1863C21.1362 14.8882 20.1117 13.8637 18.8136 13.7174C18.6671 13.7009 18.4835 13.6998 18.0001 13.6998Z" fill="#222628"/>
<path fill-rule="evenodd" clip-rule="evenodd" d="M5.95022 1.29981C5.9666 1.29981 5.98321 1.29981 6.00005 1.29981C6.0169 1.29981 6.03351 1.29981 6.04989 1.29981C6.46656 1.29977 6.73531 1.29974 6.97031 1.32622C8.91751 1.54562 10.4542 3.08236 10.6736 5.02956C10.7001 5.26455 10.7001 5.5333 10.7001 5.94996C10.7001 5.96634 10.7001 5.98296 10.7001 5.99981C10.7001 6.01666 10.7001 6.03328 10.7001 6.04967C10.7001 6.46632 10.7001 6.73507 10.6736 6.97006C10.4542 8.91726 8.91751 10.454 6.97031 10.6734C6.73532 10.6999 6.46657 10.6999 6.04991 10.6998C6.03352 10.6998 6.01691 10.6998 6.00005 10.6998C5.9832 10.6998 5.96659 10.6998 5.9502 10.6998C5.53354 10.6999 5.26479 10.6999 5.0298 10.6734C3.0826 10.454 1.54586 8.91726 1.32646 6.97006C1.29999 6.73507 1.30001 6.46631 1.30005 6.04964C1.30005 6.03326 1.30006 6.01665 1.30006 5.99981C1.30006 5.98297 1.30005 5.96636 1.30005 5.94998C1.30001 5.53331 1.29999 5.26455 1.32646 5.02956C1.54586 3.08236 3.0826 1.54562 5.0298 1.32622C5.2648 1.29974 5.53355 1.29977 5.95022 1.29981ZM6.00005 2.69981C5.51663 2.69981 5.33296 2.70092 5.18655 2.71742C3.88842 2.86368 2.86393 3.88817 2.71766 5.18631C2.70116 5.33272 2.70006 5.51639 2.70006 5.99981C2.70006 6.48323 2.70116 6.6669 2.71766 6.81331C2.86393 8.11145 3.88842 9.13594 5.18655 9.28221C5.33296 9.2987 5.51663 9.29981 6.00005 9.29981C6.48348 9.29981 6.66715 9.2987 6.81356 9.28221C8.11169 9.13594 9.13618 8.11145 9.28245 6.81331C9.29895 6.6669 9.30006 6.48323 9.30006 5.99981C9.30006 5.51639 9.29895 5.33272 9.28245 5.18631C9.13618 3.88817 8.11169 2.86368 6.81356 2.71742C6.66715 2.70092 6.48348 2.69981 6.00005 2.69981Z" fill="#222628"/>
<path fill-rule="evenodd" clip-rule="evenodd" d="M5.95022 12.2998C5.9666 12.2998 5.98321 12.2998 6.00005 12.2998C6.0169 12.2998 6.03351 12.2998 6.04989 12.2998C6.46656 12.2998 6.73531 12.2997 6.97031 12.3262C8.91751 12.5456 10.4542 14.0824 10.6736 16.0296C10.7001 16.2645 10.7001 16.5333 10.7001 16.95C10.7001 16.9663 10.7001 16.983 10.7001 16.9998C10.7001 17.0167 10.7001 17.0333 10.7001 17.0497C10.7001 17.4663 10.7001 17.7351 10.6736 17.9701C10.4542 19.9173 8.91751 21.454 6.97031 21.6734C6.73532 21.6999 6.46657 21.6999 6.04991 21.6998C6.03352 21.6998 6.01691 21.6998 6.00005 21.6998C5.9832 21.6998 5.96659 21.6998 5.9502 21.6998C5.53354 21.6999 5.26479 21.6999 5.0298 21.6734C3.0826 21.454 1.54586 19.9173 1.32646 17.9701C1.29999 17.7351 1.30001 17.4663 1.30005 17.0496C1.30005 17.0333 1.30006 17.0167 1.30006 16.9998C1.30006 16.983 1.30005 16.9664 1.30005 16.95C1.30001 16.5333 1.29999 16.2646 1.32646 16.0296C1.54586 14.0824 3.0826 12.5456 5.0298 12.3262C5.2648 12.2997 5.53355 12.2998 5.95022 12.2998ZM6.00005 13.6998C5.51663 13.6998 5.33296 13.7009 5.18655 13.7174C3.88842 13.8637 2.86393 14.8882 2.71766 16.1863C2.70116 16.3327 2.70006 16.5164 2.70006 16.9998C2.70006 17.4832 2.70116 17.6669 2.71766 17.8133C2.86393 19.1114 3.88842 20.1359 5.18655 20.2822C5.33296 20.2987 5.51663 20.2998 6.00005 20.2998C6.48348 20.2998 6.66715 20.2987 6.81356 20.2822C8.11169 20.1359 9.13618 19.1114 9.28245 17.8133C9.29895 17.6669 9.30006 17.4832 9.30006 16.9998C9.30006 16.5164 9.29895 16.3327 9.28245 16.1863C9.13618 14.8882 8.11169 13.8637 6.81356 13.7174C6.66715 13.7009 6.48348 13.6998 6.00005 13.6998Z" fill="#222628"/>
</svg>
