<svg width="24" height="24" viewBox="0 0 24 24" fill="none" xmlns="http://www.w3.org/2000/svg">
<path fill-rule="evenodd" clip-rule="evenodd" d="M7.00005 5.70005C5.72979 5.70005 4.70005 6.72979 4.70005 8.00005C4.70005 9.2703 5.72979 10.3 7.00005 10.3C8.2703 10.3 9.30005 9.2703 9.30005 8.00005C9.30005 6.72979 8.2703 5.70005 7.00005 5.70005ZM3.30005 8.00005C3.30005 5.9566 4.9566 4.30005 7.00005 4.30005C9.0435 4.30005 10.7 5.9566 10.7 8.00005C10.7 10.0435 9.0435 11.7 7.00005 11.7C4.9566 11.7 3.30005 10.0435 3.30005 8.00005Z" fill="black"/>
<path fill-rule="evenodd" clip-rule="evenodd" d="M17 15.7C15.7298 15.7 14.7 16.7298 14.7 18C14.7 19.2703 15.7298 20.3 17 20.3C18.2703 20.3 19.3 19.2703 19.3 18C19.3 16.7298 18.2703 15.7 17 15.7ZM13.3 18C13.3 15.9566 14.9566 14.3 17 14.3C19.0435 14.3 20.7 15.9566 20.7 18C20.7 20.0435 19.0435 21.7 17 21.7C14.9566 21.7 13.3 20.0435 13.3 18Z" fill="black"/>
<path fill-rule="evenodd" clip-rule="evenodd" d="M22.7001 7.99995C22.7001 8.38655 22.3867 8.69995 22.0001 8.69995L12.0001 8.69995C11.6135 8.69995 11.3001 8.38655 11.3001 7.99995C11.3001 7.61335 11.6135 7.29995 12.0001 7.29995L22.0001 7.29995C22.3867 7.29995 22.7001 7.61335 22.7001 7.99995Z" fill="black"/>
<path fill-rule="evenodd" clip-rule="evenodd" d="M12.7001 18C12.7001 18.3866 12.3867 18.7 12.0001 18.7H2.00007C1.61347 18.7 1.30007 18.3866 1.30007 18C1.30007 17.6134 1.61347 17.3 2.00007 17.3H12.0001C12.3867 17.3 12.7001 17.6134 12.7001 18Z" fill="black"/>
</svg>
