<svg width="24" height="24" viewBox="0 0 24 24" fill="none" xmlns="http://www.w3.org/2000/svg">
<path fill-rule="evenodd" clip-rule="evenodd" d="M12.6062 2.52188C12.941 2.81021 12.941 3.27768 12.6062 3.56601L2.81858 11.9956C2.4838 12.2839 1.94101 12.2839 1.60623 11.9956C1.27145 11.7072 1.27145 11.2398 1.60623 10.9514L11.3939 2.52188C11.7287 2.23355 12.2714 2.23355 12.6062 2.52188Z" fill="#222628"/>
<path fill-rule="evenodd" clip-rule="evenodd" d="M11.3938 2.52188C11.059 2.81021 11.059 3.27768 11.3938 3.56601L21.1814 11.9956C21.5162 12.2839 22.059 12.2839 22.3938 11.9956C22.7286 11.7072 22.7286 11.2398 22.3938 10.9514L12.6061 2.52188C12.2713 2.23355 11.7286 2.23355 11.3938 2.52188Z" fill="#222628"/>
<path fill-rule="evenodd" clip-rule="evenodd" d="M12.8015 22H11.2003C8.2003 22 6.70032 22 5.64886 21.2361C5.30928 20.9893 5.01065 20.6907 4.76393 20.3511C4 19.2997 4 17.7998 4 14.8V13.427C4 11.9327 4 11.1855 4.24996 10.5121C4.33245 10.2898 4.43455 10.0753 4.55503 9.8711C4.9201 9.25242 5.49998 8.78127 6.65973 7.83897L12 3.5L17.3403 7.83897C18.5 8.78127 19.0799 9.25242 19.445 9.8711C19.5655 10.0753 19.6675 10.2898 19.75 10.5121C20 11.1855 20 11.9327 20 13.427V14.8C20 17.7998 20 19.2997 19.2361 20.3511C18.9893 20.6907 18.6907 20.9893 18.3511 21.2361C17.2997 22 15.8003 22 12.8015 22ZM9.7 17.4421C9.3134 17.4421 9 17.7555 9 18.1421C9 18.5287 9.3134 18.8421 9.7 18.8421H13.8C14.1866 18.8421 14.5 18.5287 14.5 18.1421C14.5 17.7555 14.1866 17.4421 13.8 17.4421H9.7Z" fill="#222628"/>
</svg>
