<svg width="24" height="24" viewBox="0 0 24 24" fill="none" xmlns="http://www.w3.org/2000/svg">
<path fill-rule="evenodd" clip-rule="evenodd" d="M5.30005 6.00005C5.30005 5.61345 5.61345 5.30005 6.00005 5.30005H18C18.3866 5.30005 18.7 5.61345 18.7 6.00005C18.7 6.38665 18.3866 6.70005 18 6.70005H6.00005C5.61345 6.70005 5.30005 6.38665 5.30005 6.00005Z" fill="black"/>
<path fill-rule="evenodd" clip-rule="evenodd" d="M5.30005 13.4C5.30005 13.0134 5.61345 12.7 6.00005 12.7H14C14.3866 12.7 14.7 13.0134 14.7 13.4C14.7 13.7866 14.3866 14.1 14 14.1H6.00005C5.61345 14.1 5.30005 13.7866 5.30005 13.4Z" fill="black"/>
<path fill-rule="evenodd" clip-rule="evenodd" d="M5.30005 20.8001C5.30005 20.4135 5.61345 20.1001 6.00005 20.1001H10C10.3866 20.1001 10.7 20.4135 10.7 20.8001C10.7 21.1867 10.3866 21.5001 10 21.5001H6.00005C5.61345 21.5001 5.30005 21.1867 5.30005 20.8001Z" fill="black"/>
</svg>
